<svg width="69" height="69" xmlns="http://www.w3.org/2000/svg" xmlns:xlink="http://www.w3.org/1999/xlink" xml:space="preserve" overflow="hidden"><g transform="translate(-149 -577)"><path d="M204.128 621.778 200.894 619.909 203.409 619.263C204.2 619.047 204.631 618.256 204.416 617.537 204.2 616.819 203.409 616.316 202.691 616.531L197.372 617.969 195.288 616.747 201.756 615.022C202.547 614.806 202.978 614.016 202.762 613.297 202.547 612.578 201.756 612.075 201.038 612.291L191.766 614.734 189.034 613.153C189.178 612.65 189.25 612.147 189.25 611.644 189.25 611.141 189.178 610.566 189.034 610.134L191.766 608.553 201.038 610.997C201.181 610.997 201.253 611.069 201.397 611.069 202.044 611.069 202.619 610.638 202.762 609.991 202.978 609.2 202.547 608.409 201.756 608.266L195.288 606.541 197.372 605.319 202.691 606.756C202.834 606.756 202.906 606.828 203.05 606.828 203.697 606.828 204.272 606.397 204.416 605.75 204.631 604.959 204.2 604.169 203.409 604.025L200.894 603.378 204.128 601.509C204.847 601.078 205.062 600.216 204.631 599.569 204.2 598.85 203.337 598.634 202.691 599.066L199.456 600.934 200.103 598.419C200.319 597.628 199.887 596.838 199.097 596.694 198.306 596.478 197.516 596.909 197.372 597.7L195.934 603.019 193.85 604.241 195.575 597.772C195.791 596.981 195.359 596.191 194.569 596.047 193.778 595.831 192.988 596.263 192.844 597.053L190.4 606.325 187.669 607.906C186.95 607.188 186.016 606.612 185.009 606.397L185.009 603.234 191.766 596.478C192.341 595.903 192.341 595.041 191.766 594.466 191.191 593.891 190.328 593.891 189.753 594.466L184.938 598.706 184.938 596.334 188.819 592.453C189.394 591.878 189.394 591.016 188.819 590.441 188.244 589.866 187.381 589.866 186.806 590.441L184.938 592.237 184.938 588.5C184.938 587.709 184.291 587.062 183.5 587.062 182.709 587.062 182.062 587.709 182.062 588.5L182.062 592.237 180.194 590.369C179.619 589.794 178.756 589.794 178.181 590.369 177.606 590.944 177.606 591.806 178.181 592.381L182.062 596.263 182.062 598.634 177.319 593.891C176.744 593.316 175.881 593.316 175.306 593.891 174.731 594.466 174.731 595.328 175.306 595.903L182.062 602.659 182.062 605.822C181.056 606.109 180.122 606.612 179.403 607.331L176.672 605.75 174.156 596.622C173.941 595.831 173.15 595.4 172.431 595.616 171.641 595.831 171.209 596.622 171.425 597.341L173.15 603.809 171.066 602.588 169.628 597.269C169.413 596.478 168.622 596.047 167.903 596.263 167.113 596.478 166.681 597.269 166.897 597.987L167.544 600.503 164.309 598.634C163.591 598.203 162.728 598.491 162.369 599.138 161.938 599.856 162.225 600.719 162.872 601.078L166.106 602.947 163.591 603.594C162.8 603.809 162.369 604.6 162.584 605.319 162.728 605.966 163.303 606.397 163.95 606.397 164.094 606.397 164.166 606.397 164.309 606.325L169.628 604.888 171.712 606.109 165.244 607.834C164.453 608.05 164.022 608.841 164.238 609.559 164.381 610.206 164.956 610.638 165.603 610.638 165.747 610.638 165.819 610.638 165.962 610.566L175.234 608.122 177.966 609.703C177.822 610.422 177.75 610.997 177.75 611.5 177.75 612.003 177.822 612.578 177.966 613.009L175.234 614.591 165.962 612.147C165.172 611.931 164.381 612.362 164.238 613.153 164.094 613.944 164.453 614.734 165.244 614.878L171.712 616.603 169.628 617.825 164.309 616.388C163.519 616.172 162.728 616.603 162.584 617.394 162.441 618.184 162.8 618.975 163.591 619.119L166.106 619.766 162.872 621.634C162.153 622.066 161.938 622.928 162.369 623.575 162.656 624.006 163.087 624.294 163.591 624.294 163.806 624.294 164.094 624.222 164.309 624.078L167.544 622.209 166.897 624.725C166.681 625.516 167.113 626.306 167.903 626.45 168.047 626.45 168.119 626.522 168.262 626.522 168.909 626.522 169.484 626.091 169.628 625.444L171.066 620.125 173.15 618.903 171.425 625.372C171.209 626.162 171.641 626.953 172.431 627.097 172.575 627.097 172.647 627.169 172.791 627.169 173.438 627.169 174.012 626.737 174.156 626.091L176.6 616.819 179.331 615.237C180.05 615.956 180.984 616.531 181.991 616.747L181.991 619.909 175.234 626.666C174.659 627.241 174.659 628.103 175.234 628.678 175.809 629.253 176.672 629.253 177.247 628.678L181.991 623.934 181.991 626.306 178.109 630.188C177.534 630.763 177.534 631.625 178.109 632.2 178.684 632.775 179.547 632.775 180.122 632.2L181.991 630.331 181.991 634.5C181.991 635.291 182.637 635.938 183.428 635.938 184.219 635.938 184.866 635.291 184.866 634.5L184.866 630.763 186.734 632.631C187.094 632.919 187.453 633.062 187.812 633.062 188.172 633.062 188.531 632.919 188.819 632.631 189.394 632.056 189.394 631.194 188.819 630.619L184.938 626.737 184.938 624.366 189.681 629.109C189.969 629.325 190.328 629.469 190.688 629.469 191.047 629.469 191.406 629.325 191.694 629.037 192.269 628.463 192.269 627.6 191.694 627.025L184.938 620.269 184.938 617.106C185.944 616.819 186.878 616.316 187.597 615.597L190.328 617.178 192.844 626.378C192.988 627.025 193.562 627.456 194.209 627.456 194.353 627.456 194.425 627.456 194.569 627.384 195.359 627.169 195.791 626.378 195.575 625.659L193.85 619.191 195.934 620.412 197.372 625.731C197.516 626.378 198.091 626.809 198.738 626.809 198.881 626.809 198.953 626.809 199.097 626.737 199.887 626.522 200.319 625.731 200.103 625.013L199.456 622.497 202.691 624.366C202.906 624.509 203.194 624.581 203.409 624.581 203.913 624.581 204.416 624.294 204.631 623.862 205.062 623 204.847 622.138 204.128 621.778Z" fill="#5C92DC"/></g></svg>