<svg width="69" height="69" xmlns="http://www.w3.org/2000/svg" xmlns:xlink="http://www.w3.org/1999/xlink" xml:space="preserve" overflow="hidden"><g transform="translate(-412 -577)"><path d="M465.252 614.023C463.204 612.993 461.068 612.149 458.87 611.5 461.068 610.851 463.204 610.007 465.252 608.977 468.577 606.997 469.737 602.739 467.876 599.346 466.931 597.722 465.38 596.54 463.563 596.061 461.764 595.551 459.836 595.79 458.216 596.722 456.042 598.216 454.054 599.963 452.293 601.926 453.101 599.42 453.606 596.826 453.795 594.2 453.671 590.327 450.432 587.289 446.559 587.413 442.861 587.531 439.891 590.502 439.772 594.2 439.959 596.826 440.463 599.421 441.275 601.926 439.514 599.96 437.523 598.213 435.345 596.722 433.725 595.789 431.796 595.55 429.997 596.061 428.181 596.541 426.63 597.722 425.685 599.346 423.824 602.739 424.984 606.997 428.308 608.977 430.371 610.009 432.521 610.853 434.734 611.5 432.538 612.15 430.405 612.994 428.359 614.023 425.034 616.003 423.874 620.261 425.735 623.654 426.68 625.278 428.231 626.459 430.048 626.939 430.671 627.109 431.314 627.196 431.96 627.198 433.166 627.201 434.352 626.884 435.395 626.277 437.573 624.787 439.564 623.04 441.325 621.074 440.513 623.579 440.009 626.174 439.823 628.8 439.947 632.673 443.186 635.711 447.059 635.587 450.757 635.469 453.727 632.498 453.846 628.8 453.656 626.174 453.152 623.58 452.343 621.074 454.104 623.037 456.092 624.784 458.266 626.277 459.312 626.883 460.5 627.2 461.709 627.198 462.352 627.196 462.993 627.109 463.613 626.939 465.43 626.46 466.982 625.278 467.926 623.654 469.778 620.248 468.595 615.987 465.252 614.023ZM446.802 618.551C442.908 618.547 439.754 615.387 439.758 611.493 439.762 607.599 442.922 604.445 446.816 604.449 450.708 604.453 453.86 607.609 453.86 611.5 453.856 615.395 450.697 618.551 446.802 618.551Z" fill="#B4B4DA"/></g></svg>