<svg width="68" height="69" xmlns="http://www.w3.org/2000/svg" xmlns:xlink="http://www.w3.org/1999/xlink" xml:space="preserve" overflow="hidden"><g transform="translate(-608 -577)"><path d="M2.83333 31.875 15.5833 31.875 15.5833 36.125 2.83333 36.125Z" fill="#E3B505" transform="matrix(1 0 0 1.01471 608 577)"/><path d="M52.4167 31.875 65.1667 31.875 65.1667 36.125 52.4167 36.125Z" fill="#E3B505" transform="matrix(1 0 0 1.01471 608 577)"/><path d="M49.5833 34C49.5833 42.6064 42.6064 49.5833 34 49.5833 25.3936 49.5833 18.4167 42.6064 18.4167 34 18.4167 25.3936 25.3936 18.4167 34 18.4167 42.6064 18.4167 49.5833 25.3936 49.5833 34Z" fill="#E3B505" transform="matrix(1 0 0 1.01471 608 577)"/><path d="M31.875 52.4167 36.125 52.4167 36.125 65.1667 31.875 65.1667Z" fill="#E3B505" transform="matrix(1 0 0 1.01471 608 577)"/><path d="M31.875 2.83333 36.125 2.83333 36.125 15.5833 31.875 15.5833Z" fill="#E3B505" transform="matrix(1 0 0 1.01471 608 577)"/><path d="M10.2027 49.7294 23.0453 49.7294 23.0453 54.0103 10.2027 54.0103Z" fill="#E3B505" transform="matrix(-0.702002 0.712325 -0.702002 -0.712325 672.518 654.357)"/><path d="M45.4485 14.4836 58.2911 14.4836 58.2911 18.7645 45.4485 18.7645Z" fill="#E3B505" transform="matrix(-0.702002 0.712325 -0.702002 -0.712325 707.648 568.641)"/><path d="M14.4836 10.2027 18.7645 10.2027 18.7645 23.0453 14.4836 23.0453Z" fill="#E3B505" transform="matrix(-0.702002 0.712325 -0.702002 -0.712325 647.844 593.677)"/><path d="M49.7294 45.4485 54.0103 45.4485 54.0103 58.2911 49.7294 58.2911Z" fill="#E3B505" transform="matrix(-0.702002 0.712325 -0.702002 -0.712325 732.32 629.322)"/></g></svg>