<svg width="68" height="69" xmlns="http://www.w3.org/2000/svg" xmlns:xlink="http://www.w3.org/1999/xlink" xml:space="preserve" overflow="hidden"><g transform="translate(-867 -577)"><path d="M32.2292 14.1667C21.25 14.1667 12.3958 23.0208 12.3958 34 12.3958 37.4708 13.3167 40.7292 14.875 43.5625 16.3625 42.0042 17.9917 40.4458 19.7625 38.7458 24.225 34.5667 29.4667 30.3167 33.8583 27.2 34.1417 26.9875 34.425 26.8458 34.7792 26.8458 35.5583 26.8458 36.1958 27.4833 36.1958 28.2625 36.1958 28.7583 35.9833 29.1125 35.6292 29.3958L35.6292 29.3958C29.325 33.9292 20.9667 40.9417 15.3 47.3167 15.3 47.3167 14.5208 48.1667 14.1667 48.5917L14.1667 48.5917C10.9792 52.3458 8.85417 55.7458 8.85417 58.1542L13.1042 58.1542C13.1042 56.5958 15.5833 53.1958 19.3375 49.1583 22.8083 52.1333 27.2708 53.9042 32.2292 53.9042 35.7708 53.9042 39.1708 52.9833 42.075 51.2833L42.075 51.2833C57.2333 42.8542 59.1458 27.3417 59.1458 9.91667 59.1458 9.91667 42.6417 14.45 32.2292 14.1667Z" fill="#D95605" transform="matrix(1 0 0 1.01471 867 577)"/></g></svg>